<svg width="22" height="17" viewBox="0 0 22 17" fill="none" xmlns="http://www.w3.org/2000/svg">
<path d="M4.17018 0C1.8707 0 0 1.87092 0 4.1704C0 6.19474 1.45074 7.88517 3.36656 8.26089V11.5423H2.56713C2.12317 11.5423 1.76329 11.9022 1.76329 12.3457C1.76329 12.7898 2.12339 13.1495 2.56713 13.1495H3.36656V15.2315C3.36656 15.6753 3.72666 16.0349 4.17018 16.0349C4.61436 16.0349 4.97401 15.675 4.97401 15.2315V13.1495H5.77323C6.21741 13.1495 6.57706 12.7896 6.57706 12.3457C6.57706 11.9019 6.21719 11.5423 5.77323 11.5423H4.97401V8.26089C6.89006 7.88495 8.34057 6.19474 8.34057 4.1704C8.34057 1.87092 6.46987 0 4.17018 0ZM4.17018 6.73312C2.75708 6.73312 1.60745 5.58327 1.60745 4.1704C1.60745 2.75708 2.75708 1.60745 4.17018 1.60745C5.58349 1.60745 6.73312 2.75708 6.73312 4.1704C6.7329 5.58327 5.58349 6.73312 4.17018 6.73312Z" fill="#9098B1"/>
<path d="M20.7706 2.91115C20.596 2.76543 20.3574 2.72295 20.1433 2.79845L17.1348 3.8651C16.9143 3.94302 16.754 4.13429 16.7153 4.36474C16.677 4.5952 16.7659 4.82851 16.9488 4.97423L17.6587 5.53968L15.445 8.1746C14.8505 7.86359 14.1862 7.69477 13.5114 7.69477C12.2332 7.69477 11.0433 8.26749 10.2472 9.26656C8.8145 11.0648 9.11231 13.694 10.9108 15.1265C11.6464 15.7124 12.568 16.0353 13.507 16.0353C14.7856 16.0353 15.9755 15.4622 16.7712 14.4631C18.0282 12.8849 17.9525 10.668 16.6999 9.18006L18.9164 6.54162L19.4567 6.97193C19.5727 7.06394 19.7143 7.11214 19.8573 7.11214C19.9355 7.11214 20.0138 7.09805 20.0887 7.06922C20.302 6.9869 20.4554 6.79804 20.4924 6.57265L20.9927 3.5083C21.0294 3.28423 20.9451 3.05686 20.7706 2.91115ZM15.5137 13.4614C15.0244 14.0753 14.2932 14.4279 13.507 14.4279C12.9224 14.4279 12.3712 14.2344 11.9125 13.8695C10.8074 12.989 10.6245 11.3734 11.5044 10.2678C11.9937 9.65395 12.7254 9.30222 13.5112 9.30222C14.0958 9.30222 14.6474 9.49525 15.1061 9.8602C16.211 10.7411 16.3942 12.3567 15.5137 13.4614Z" fill="#9098B1"/>
</svg>
