<svg width="33" height="31" viewBox="0 0 33 31" fill="none" xmlns="http://www.w3.org/2000/svg">
<path d="M2.82918 9.25375V2.90879C2.82918 2.48098 3.17792 2.13338 3.60345 2.13338H10.4456C11.0344 2.13338 11.5123 1.6555 11.5123 1.06669C11.5123 0.477877 11.0344 0 10.4456 0H3.60345C2.00143 0 0.695801 1.30449 0.695801 2.90879V9.25318C0.695801 9.84199 1.17368 10.3199 1.76249 10.3199C2.3513 10.3199 2.82918 9.84256 2.82918 9.25375Z" fill="white"/>
<path d="M10.4456 28.8666H3.60345C3.17792 28.8666 2.82918 28.5178 2.82918 28.09V22.3987C2.82918 21.8099 2.3513 21.332 1.76249 21.332C1.17368 21.332 0.695801 21.8099 0.695801 22.3987V28.09C0.695801 29.6943 2.00143 30.9999 3.60345 30.9999H10.4456C11.0344 30.9999 11.5123 30.5221 11.5123 29.9332C11.5123 29.3444 11.0344 28.8666 10.4456 28.8666Z" fill="white"/>
<path d="M30.6291 20.9839C30.0403 20.9839 29.5624 21.4618 29.5624 22.0506V28.0895C29.5624 28.5173 29.2148 28.866 28.787 28.866H22.2173C21.6285 28.866 21.1506 29.3439 21.1506 29.9327C21.1506 30.5215 21.6285 30.9994 22.2173 30.9994H28.787C30.3913 30.9994 31.6958 29.6938 31.6958 28.0895V22.0506C31.6958 21.4618 31.2179 20.9839 30.6291 20.9839Z" fill="white"/>
<path d="M30.6291 10.3204C31.2179 10.3204 31.6958 9.84256 31.6958 9.25375V2.90879C31.6958 1.30449 30.3913 0 28.787 0H22.2173C21.6285 0 21.1506 0.477877 21.1506 1.06669C21.1506 1.6555 21.6285 2.13338 22.2173 2.13338H28.787C29.2148 2.13338 29.5624 2.48098 29.5624 2.90879V9.25318C29.5624 9.84256 30.0403 10.3204 30.6291 10.3204Z" fill="white"/>
<path d="M31.3243 14.4324H1.06669C0.477877 14.4324 0 14.9097 0 15.4991C0 16.0884 0.477877 16.5658 1.06669 16.5658H31.3243C31.9131 16.5658 32.391 16.0879 32.391 15.4991C32.391 14.9103 31.9137 14.4324 31.3243 14.4324Z" fill="white"/>
</svg>
