<svg width="24" height="24" viewBox="0 0 24 24" fill="none" xmlns="http://www.w3.org/2000/svg">
<path fill-rule="evenodd" clip-rule="evenodd" d="M5.375 3C5.375 2.44772 5.82272 2 6.375 2H17.625C18.1773 2 18.625 2.44772 18.625 3V21C18.625 21.5523 18.1773 22 17.625 22H6.375C5.82272 22 5.375 21.5523 5.375 21V3ZM7.375 4V20H16.625V4H7.375Z" fill="#6C3082"/>
<path fill-rule="evenodd" clip-rule="evenodd" d="M10.9944 17.625C10.9944 17.0727 11.4421 16.625 11.9944 16.625H12.0056C12.5579 16.625 13.0056 17.0727 13.0056 17.625C13.0056 18.1773 12.5579 18.625 12.0056 18.625H11.9944C11.4421 18.625 10.9944 18.1773 10.9944 17.625Z" fill="#6C3082"/>
</svg>
