<svg width="24" height="24" viewBox="0 0 24 24" fill="none" xmlns="http://www.w3.org/2000/svg">
<path fill-rule="evenodd" clip-rule="evenodd" d="M7.5 2C8.05228 2 8.5 2.44772 8.5 3V4.25H15.5V3C15.5 2.44772 15.9477 2 16.5 2C17.0523 2 17.5 2.44772 17.5 3V4.25H21C21.5523 4.25 22 4.69772 22 5.25V21C22 21.5523 21.5523 22 21 22H3C2.44772 22 2 21.5523 2 21V5.25C2 4.69772 2.44772 4.25 3 4.25H6.5V3C6.5 2.44772 6.94772 2 7.5 2ZM6.5 6.25H4V9.875H20V6.25H17.5V7.5C17.5 8.05228 17.0523 8.5 16.5 8.5C15.9477 8.5 15.5 8.05228 15.5 7.5V6.25H8.5V7.5C8.5 8.05228 8.05228 8.5 7.5 8.5C6.94772 8.5 6.5 8.05228 6.5 7.5V6.25ZM20 11.875H4V20H20V11.875Z" fill="#6C3082"/>
</svg>
