<svg width="25" height="19" viewBox="0 0 25 19" fill="none" xmlns="http://www.w3.org/2000/svg">
<path d="M22.3871 6.62602H20.531V2.42109C20.531 1.08604 19.3586 0 17.9178 0H2.61316C1.17208 0 0 1.08604 0 2.42109V9.95374C0 11.2885 1.17236 12.3745 2.61316 12.3745H4.46932V16.5792C4.46932 17.914 5.64168 19 7.08248 19H22.3868C23.8276 19 25 17.914 25 16.5792V9.04654C25.0006 7.71206 23.8279 6.62602 22.3871 6.62602ZM2.61316 1.6981H17.9178C18.4259 1.6981 18.855 2.02918 18.855 2.42137V3.73407H1.676V2.42137C1.676 2.02918 2.10533 1.6981 2.61316 1.6981ZM2.61316 10.6767C2.10505 10.6767 1.676 10.3457 1.676 9.95374V5.43189H18.855V6.62602H7.08276C5.64196 6.62602 4.4696 7.71206 4.4696 9.04683V10.6767H2.61316ZM23.3246 16.5795C23.3246 16.9714 22.8955 17.3025 22.3874 17.3025H7.08276C6.57465 17.3025 6.1456 16.9714 6.1456 16.5795V9.04683C6.1456 8.65491 6.57465 8.32384 7.08276 8.32384H22.3871C22.8952 8.32384 23.3243 8.65491 23.3243 9.04683L23.3246 16.5795Z" fill="#6C3082"/>
<path d="M12.5004 11.964H7.92635V13.6618H12.5004V11.964Z" fill="#6C3082"/>
<path d="M10.2658 14.2985H7.92635V15.9963H10.2658V14.2985Z" fill="#6C3082"/>
</svg>
