<svg width="20" height="22" viewBox="0 0 20 22" fill="none" xmlns="http://www.w3.org/2000/svg">
<path fill-rule="evenodd" clip-rule="evenodd" d="M9.38606 0.210648L0.386059 7.21065C0.142473 7.4001 0 7.69141 0 8V19C0 20.6569 1.34315 22 3 22H17C18.6569 22 20 20.6569 20 19V8C20 7.69141 19.8575 7.4001 19.6139 7.21065L10.6139 0.210648C10.2528 -0.0702159 9.74717 -0.0702159 9.38606 0.210648ZM2 19V8.48908L10 2.26686L18 8.48908V19C18 19.5523 17.5523 20 17 20H3C2.44772 20 2 19.5523 2 19Z" fill="black"/>
</svg>
