<svg width="21" height="19" viewBox="0 0 21 19" fill="none" xmlns="http://www.w3.org/2000/svg">
<path d="M20.7577 2.46355L18.2538 0.217372C17.9307 -0.0724574 17.4461 -0.0724574 17.123 0.217372L15.5884 1.59406L9.61151 6.95591C9.53074 7.02837 9.53074 7.10083 9.44997 7.17328C9.44997 7.17328 9.44997 7.17328 9.44997 7.24574L8.15766 10.6512C8.07689 10.9411 8.15766 11.2309 8.3192 11.3758C8.48074 11.5207 8.64228 11.5932 8.88459 11.5932C8.96535 11.5932 9.04612 11.5932 9.12689 11.5207L12.923 10.3614C12.923 10.3614 12.923 10.3614 13.0038 10.3614C13.0846 10.3614 13.1654 10.289 13.2461 10.2165L20.7577 3.47796C21.0807 3.18813 21.0807 2.75338 20.7577 2.46355ZM19.0615 2.97075L18.6577 3.33304L17.2846 2.10126L17.6884 1.73898L19.0615 2.97075ZM12.6807 8.69489L12.0346 8.11523L11.3077 7.46311L16.1538 3.11567L17.5269 4.34744L12.6807 8.69489ZM10.1769 9.70929L10.5 8.8398L11.1461 9.41946L10.1769 9.70929Z" fill="#6C3082"/>
<path d="M16.9615 10.1441C16.4769 10.1441 16.1538 10.4339 16.1538 10.8686V15.9407C16.1538 16.7377 15.4269 17.3898 14.5385 17.3898H3.23077C2.34231 17.3898 1.61538 16.7377 1.61538 15.9407V5.79661C1.61538 4.99958 2.34231 4.34746 3.23077 4.34746H8.88461C9.36923 4.34746 9.69231 4.05763 9.69231 3.62289C9.69231 3.18815 9.36923 2.89832 8.88461 2.89832H3.23077C1.45385 2.89832 0 4.20255 0 5.79661V15.9407C0 17.5347 1.45385 18.839 3.23077 18.839H14.5385C16.3154 18.839 17.7692 17.5347 17.7692 15.9407V10.8686C17.7692 10.4339 17.4461 10.1441 16.9615 10.1441Z" fill="#6C3082"/>
</svg>
